<svg t="1685950408472" class="icon" viewBox="0 0 1024 1024" version="1.1" xmlns="http://www.w3.org/2000/svg" p-id="35905" width="16" height="16"><path d="M536.762182 332.613818l4.794182 3.537455 244.037818 203.869091c14.661818 12.101818 23.738182 29.044364 25.506909 47.290181l0.325818 6.888728v224.349091c0 29.789091-23.598545 54.365091-53.806545 57.297454l-6.144 0.325818H273.128727c-31.045818 0-56.599273-22.667636-59.671272-51.758545l-0.279273-5.864727v-224.349091c0-18.478545 7.400727-36.165818 20.48-49.431273l5.213091-4.794182 243.758545-203.869091a46.266182 46.266182 0 0 1 54.132364-3.490909z m-25.134546 251.205818c-82.432 0-149.317818 60.043636-149.317818 102.865455 0 41.332364 61.998545 98.071273 140.241455 102.260364l9.122909 0.232727c82.897455 0 149.783273-60.928 149.783273-102.493091 0-41.518545-67.304727-102.865455-149.783273-102.865455z m5.166546 27.182546l6.981818 0.418909c36.445091 2.001455 64.139636 31.883636 62.091636 66.699636 0 2.420364-0.418909 4.840727-0.418909 7.214546a67.816727 67.816727 0 0 1-49.850182 57.064727 71.447273 71.447273 0 0 1-73.960727-22.481455 64.930909 64.930909 0 0 1-6.656-74.193454c13.591273-23.738182 40.773818-37.282909 68.840727-34.304z m38.958545-409.413818l105.984 88.948363V243.712c0-15.872 13.358545-28.765091 29.882182-28.811636h29.882182c16.570182 0 29.975273 12.893091 29.975273 28.858181v121.576728l168.587636 141.125818a29.789091 29.789091 0 0 1 8.890182 33.605818 30.859636 30.859636 0 0 1-29.137455 19.828364h-17.128727c-18.013091 0-35.374545-6.237091-48.965818-17.594182l-272.570182-227.886546a77.172364 77.172364 0 0 0-98.210909 0L190.370909 542.254545a76.567273 76.567273 0 0 1-49.058909 17.594182h-17.128727a30.859636 30.859636 0 0 1-29.137455-19.828363 29.649455 29.649455 0 0 1 8.983273-33.605819l364.544-304.453818a68.701091 68.701091 0 0 1 87.179636-0.465454z" fill="#3B8DFF" p-id="35906"></path></svg>
