<svg t="1686312781341" class="icon" viewBox="0 0 1024 1024" version="1.1" xmlns="http://www.w3.org/2000/svg" p-id="76917" width="16" height="16"><path d="M347.91 676.09c0.22-90.62 73.87-163.9 164.49-163.68 90.31 0.22 163.46 73.37 163.68 163.68H347.91z m-164.08 82.04h656.35c22.66 0.11 40.93 18.57 40.82 41.22-0.11 22.5-18.32 40.71-40.82 40.82H183.83c-22.66-0.11-40.93-18.57-40.82-41.22 0.11-22.5 18.32-40.71 40.82-40.82z" fill="#2E3133" p-id="76918"></path><path d="M819.66 553.02h61.53c33.98-0.14 61.64 27.3 61.78 61.28 0.14 33.98-27.3 61.64-61.28 61.78h-62.03c-33.98-0.14-61.42-27.8-61.28-61.78 0.14-33.78 27.49-61.14 61.28-61.28zM678.57 383.66l43.51-43.51c24.03-24.03 62.99-24.03 87.02 0 24.03 24.03 24.03 62.99 0 87.02l-43.51 43.51c-24.14 23.92-63.1 23.74-87.02-0.39-23.76-23.99-23.76-62.65 0-86.63zM142.81 553.02h61.53c33.98 0.14 61.42 27.8 61.28 61.78-0.14 33.79-27.49 61.15-61.28 61.28h-61.53c-33.98 0.14-61.64-27.3-61.78-61.28s27.3-61.64 61.28-61.78h0.5zM512 204.34c33.98 0 61.53 27.55 61.53 61.53v61.53c-0.14 33.98-27.8 61.42-61.78 61.28-33.79-0.14-61.15-27.49-61.28-61.28v-61.53c0-33.98 27.55-61.53 61.53-61.53zM217.08 340.15c24.03-24.03 62.99-24.03 87.02 0l43.51 43.51c23.96 24.1 23.84 63.06-0.26 87.02-24 23.86-62.76 23.85-86.76 0l-43.51-43.51c-24.17-23.89-24.65-62.59-0.76-86.76 0.17-0.18 0.34-0.35 0.76-0.26z" fill="#2E3133" opacity=".3" p-id="76919"></path></svg>
