<svg t="1685949500559" class="icon" viewBox="0 0 1024 1024" version="1.1" xmlns="http://www.w3.org/2000/svg" p-id="35745" width="16" height="16"><path d="M711.512 332.786c111.723 111.716 111.723 293.496 0 405.208-111.701 111.716-293.491 111.716-405.202 0-8.438-8.443-16.758-18.109-25.443-29.604a12.566 12.566 0 0 1-1.421-12.781 12.646 12.646 0 0 1 10.569-7.318c63.169-4.278 122.474-31.159 166.969-75.665 91.875-91.875 101.863-239.233 23.195-342.743a12.489 12.489 0 0 1-1.433-12.776 12.442 12.442 0 0 1 10.57-7.351c82.823-5.605 163.837 24.661 222.196 83.03" fill="#0099FF" p-id="35746"></path><path d="M711.512 332.786c-9.106-9.122-18.836-17.468-28.976-25.18 96.696 112.443 91.854 282.678-14.701 389.235-77.884 77.889-196.257 121.565-294.762 90.863 38.371 22.693 90.045 30.427 106.804 32.59 82.737 8.354 168.4-19.066 231.635-82.3 111.722-111.712 111.722-293.492 0-405.208" fill="#060404" p-id="35747"></path><path d="M785.756 608.695c2.756-10.479 4.994-21.069 6.532-31.74H697.11c-15.24 0-27.598-7.109-27.598-15.882 0-8.762 12.356-15.87 27.598-15.87h3.682c15.24 0 27.607-7.108 27.607-15.87s-12.367-15.87-27.607-15.87H518.851c-4.197 12.2-9.504 24.045-15.521 35.599 5.919 2.906 9.763 7.187 9.763 12.013 0 8.52-11.699 15.419-26.337 15.807-7.749 11.177-16.555 21.77-26.198 31.815H662.82l122.936-0.002z" fill="#060404" p-id="35748"></path><path d="M459.803 653.621c23.775 0 43.063-4.146 43.063-9.246 0-5.112-19.288-9.256-43.063-9.256H327.814c-23.787 0-43.063 4.144-43.063 9.256 0 5.102 19.276 9.246 43.063 9.246h131.989z" fill="#FFCC00" p-id="35749"></path><path d="M355.056 297.591c9.946 0 18.018-2.368 18.018-5.301 0-2.927-8.071-5.3-18.018-5.3H299.82c-9.944 0-18.018 2.373-18.018 5.3 0 2.934 8.072 5.301 18.018 5.301h55.236z" fill="#366DB5" p-id="35750"></path><path d="M553.627 387.049h40.242c7.771 0 14.058 3.089 14.058 6.889 0 3.816-6.286 6.905-14.058 6.905h-1.873c-7.749 0-14.046 3.083-14.046 6.899 0 3.8 6.297 6.889 14.046 6.889h86.525c7.761 0 14.046 3.094 14.046 6.898 0 3.811-6.285 6.9-14.046 6.9H460.256c-7.75 0-14.046-3.089-14.046-6.9 0-3.805 6.296-6.898 14.046-6.898h24.022c7.749 0 14.058-3.089 14.058-6.889 0-3.816-6.309-6.899-14.058-6.899H369.994c-7.76 0-14.056-3.089-14.056-6.905 0-3.8 6.296-6.889 14.056-6.889h183.633zM775.563 246.923h14.455c2.776 0 5.037 2.282 5.037 5.086 0 2.809-2.261 5.08-5.037 5.08h-0.678c-2.788 0-5.038 2.271-5.038 5.08 0 2.81 2.25 5.08 5.038 5.08h31.072c2.787 0 5.036 2.271 5.036 5.08 0 2.81-2.249 5.081-5.036 5.081h-78.378c-2.788 0-5.049-2.271-5.049-5.081 0-2.809 2.261-5.08 5.049-5.08h8.621c2.788 0 5.048-2.271 5.048-5.08s-2.26-5.08-5.048-5.08h-41.04c-2.775 0-5.037-2.271-5.037-5.08 0-2.804 2.262-5.086 5.037-5.086H775.563z" fill="#FF3300" p-id="35751"></path><path d="M569.631 482.201h79.065c15.241 0 27.599 7.109 27.599 15.875 0 8.762-12.356 15.871-27.599 15.871h-3.681c-15.24 0-27.607 7.108-27.607 15.87 0 8.771 12.367 15.882 27.607 15.882h169.961c15.253 0 27.607 7.097 27.607 15.869 0 8.762-12.354 15.87-27.607 15.87h-428.75c-15.24 0-27.597-7.108-27.597-15.87 0-8.772 12.355-15.869 27.597-15.869h47.165c15.24 0 27.618-7.11 27.618-15.882 0-8.762-12.378-15.87-27.618-15.87H208.892c-15.241 0-27.597-7.109-27.597-15.871 0-8.767 12.355-15.875 27.597-15.875h360.739z" fill="#FFCC00" p-id="35752"></path></svg>
