<svg t="1685949693876" class="icon" viewBox="0 0 1024 1024" version="1.1" xmlns="http://www.w3.org/2000/svg" p-id="7584" width="16" height="16"><path d="M486.9 514.8c-11.2 0-22.2 1.5-32.5 4.2 41.2 10.8 74.3 41.6 88.3 81.4 16.3-10.9 35.2-18.2 55.6-20.7-22-38.8-63.6-64.9-111.4-64.9zM326.9 451.8c-11.4 0-22.4 2-32.5 5.7 32.4 11.7 56.8 40.3 62.3 75.1 4.9-2.9 10-5.5 15.3-7.7 13.9-5.9 29.2-9.4 45.1-10-13.5-36.8-48.8-63.1-90.2-63.1zM740.6 594.6c-1.1-0.6-2.1-1.1-3.2-1.7 1.1 0.6 2.2 1.1 3.2 1.7 39.9-35.2 65.1-86.6 65.1-144 0-105.9-85.9-191.8-191.8-191.8-11.1 0-22 1-32.5 2.8 90.5 15.4 159.3 94.2 159.3 189.1 0 49.6-18.8 94.7-49.7 128.7-4-0.4-8.1-0.6-12.2-0.6-11.2 0-22.1 1.5-32.5 4.2 10.3 2.7 20.1 6.6 29.2 11.7 39.5 21.8 66.3 63.8 66.3 112.2 0 70.7-57.3 128-128 128h65c70.7 0 128-57.3 128-128 0.1-48.4-26.7-90.5-66.2-112.3z m-36.7-13.4c0.7 0.1 1.5 0.3 2.2 0.5-0.7-0.2-1.4-0.3-2.2-0.5z m-11.1-1.7c0.7 0.1 1.3 0.1 2 0.2-0.7 0-1.3-0.1-2-0.2z m3.8 0.5c0.6 0.1 1.2 0.2 1.9 0.3-0.7-0.1-1.3-0.2-1.9-0.3z m3.7 0.6c0.6 0.1 1.3 0.2 1.9 0.3-0.7-0.1-1.3-0.2-1.9-0.3z m36.1 11.8c-0.7-0.4-1.5-0.7-2.2-1.1 0.7 0.4 1.5 0.7 2.2 1.1z m-3.4-1.7c-0.7-0.3-1.4-0.7-2.1-1 0.6 0.4 1.3 0.7 2.1 1z m-3.4-1.5c-0.8-0.3-1.6-0.7-2.4-1 0.8 0.3 1.6 0.7 2.4 1z m-3.4-1.4c-1.1-0.4-2.2-0.9-3.3-1.3 1.1 0.5 2.2 0.9 3.3 1.3z m-4.5-1.7c-0.8-0.3-1.5-0.5-2.3-0.8 0.8 0.3 1.6 0.6 2.3 0.8z m-3.7-1.2c-0.7-0.2-1.3-0.4-2-0.6 0.7 0.1 1.3 0.4 2 0.6z m-3.6-1.1c-0.7-0.2-1.3-0.4-2-0.6 0.7 0.2 1.4 0.4 2 0.6z m-3.5-1c-0.8-0.2-1.7-0.4-2.5-0.6 0.8 0.2 1.6 0.4 2.5 0.6z" fill="#2EA7E0" p-id="7585"></path><path d="M675.6 594.6c-9.1-5-18.9-9-29.2-11.7 10.4-2.7 21.3-4.2 32.5-4.2 4.1 0 8.2 0.2 12.2 0.6 30.8-34 49.7-79.2 49.7-128.7 0-89.7-61.6-165-144.8-186-83.2 21-144.8 96.3-144.8 186 0 22.7 4 44.5 11.2 64.7-3.8-0.3-7.6-0.5-11.4-0.5-5 0-9.9 0.3-14.7 0.8 6.2 0.7 12.2 1.8 18.1 3.3 10.4-2.7 21.3-4.2 32.5-4.2 47.8 0 89.4 26.2 111.4 65-20.4 2.5-39.3 9.7-55.6 20.7-14-39.8-47.1-70.6-88.3-81.4-6 1.6-11.8 3.5-17.3 5.9-5.3 2.2-10.4 4.8-15.3 7.7-1-6.1-2.5-12.1-4.6-17.7-16 0.6-31.2 4.1-45.1 10-5.3 2.2-10.4 4.8-15.3 7.7-4.7-29.3-22.6-54.2-47.4-68.3-29.4 16.4-49.3 47.8-49.3 83.9 0 15.6 3.7 30.3 10.3 43.4-43.6 20.3-73.8 64.6-73.8 115.8 0 67.1 51.8 122.2 117.6 127.3H614c70.7 0 128-57.3 128-128-0.2-48.2-26.9-90.3-66.4-112.1z" fill="#F7F8F8" p-id="7586"></path><path d="M562.2 437.8m-16 0a16 16 0 1 0 32 0 16 16 0 1 0-32 0Z" fill="#3E3A39" p-id="7587"></path><path d="M530.2 464.4m-16 0a16 16 0 1 0 32 0 16 16 0 1 0-32 0Z" fill="#EF6676" p-id="7588"></path><path d="M701.9 464.4m-16 0a16 16 0 1 0 32 0 16 16 0 1 0-32 0Z" fill="#EF6676" p-id="7589"></path><path d="M669.9 437.8m-16 0a16 16 0 1 0 32 0 16 16 0 1 0-32 0Z" fill="#3E3A39" p-id="7590"></path><path d="M641.3 448.4h-50.6c-3.9 0-6.7 3.7-5.8 7.5 1.8 7.5 6.3 14 12.3 18.4 5.3 3.8 11.8 6.1 18.8 6.1s13.5-2.3 18.8-6.1c6.1-4.4 10.5-10.9 12.3-18.4 1-3.8-1.9-7.5-5.8-7.5z" fill="#3E3A39" p-id="7591"></path><path d="M616 464.4c-7 0-13.3 3.2-17.5 8.2-0.8 0.9-0.5 2.3 0.5 3 4.9 3.1 10.7 4.9 17 4.9s12.1-1.8 17-4.9c1-0.6 1.3-2 0.5-3-4.2-5-10.4-8.2-17.5-8.2z" fill="#E4847F" p-id="7592"></path><path d="M864 285.2h-13.6v-13.6c0-3.4-2.8-6.2-6.2-6.2s-6.2 2.8-6.2 6.2v13.6h-13.6c-3.4 0-6.2 2.8-6.2 6.2s2.8 6.2 6.2 6.2H838v13.6c0 3.4 2.8 6.2 6.2 6.2s6.2-2.8 6.2-6.2v-13.6H864c3.4 0 6.2-2.8 6.2-6.2s-2.8-6.2-6.2-6.2zM154.7 303.8c2.4 2.4 6.3 2.4 8.8 0l9.6-9.6 9.6 9.6c2.4 2.4 6.3 2.4 8.8 0 2.4-2.4 2.4-6.3 0-8.8l-9.6-9.6 9.6-9.6c2.4-2.4 2.4-6.3 0-8.8-2.4-2.4-6.3-2.4-8.8 0l-9.6 9.6-9.6-9.6c-2.4-2.4-6.3-2.4-8.8 0-2.4 2.4-2.4 6.3 0 8.8l9.6 9.6-9.6 9.6c-2.5 2.5-2.5 6.4 0 8.8zM765 849.2c-11.6 0-21 9.4-21 21s9.4 21 21 21 21-9.4 21-21-9.4-21-21-21z m0 32c-6.1 0-11-4.9-11-11s4.9-11 11-11 11 4.9 11 11-4.9 11-11 11zM168 451.4c0-11.6-9.4-21-21-21s-21 9.4-21 21 9.4 21 21 21 21-9.4 21-21z m-21 11c-6.1 0-11-4.9-11-11s4.9-11 11-11 11 4.9 11 11-4.9 11-11 11zM315.2 330.7c2.3 0 4.2-1.9 4.2-4.2v-13.4c0-2.3-1.9-4.2-4.2-4.2s-4.2 1.9-4.2 4.2v13.4c0 2.4 1.9 4.2 4.2 4.2zM315.2 370.8c2.3 0 4.2-1.9 4.2-4.2v-13.4c0-2.3-1.9-4.2-4.2-4.2s-4.2 1.9-4.2 4.2v13.4c0 2.3 1.9 4.2 4.2 4.2zM331.1 361.8c0.8 0.8 1.9 1.2 3 1.2s2.1-0.4 3-1.2c1.6-1.6 1.6-4.3 0-5.9l-9.4-9.4c-1.6-1.6-4.3-1.6-5.9 0-1.6 1.6-1.6 4.3 0 5.9l9.3 9.4zM302.8 333.4c0.8 0.8 1.9 1.2 3 1.2s2.1-0.4 3-1.2c1.6-1.6 1.6-4.3 0-5.9l-9.4-9.4c-1.6-1.6-4.3-1.6-5.9 0-1.6 1.6-1.6 4.3 0 5.9l9.3 9.4zM302.8 346.4l-9.4 9.4c-1.6 1.6-1.6 4.3 0 5.9 0.8 0.8 1.9 1.2 3 1.2s2.1-0.4 3-1.2l9.4-9.4c1.6-1.6 1.6-4.3 0-5.9-1.7-1.6-4.4-1.6-6 0zM324.6 334.6c1.1 0 2.1-0.4 3-1.2l9.4-9.4c1.6-1.6 1.6-4.3 0-5.9-1.6-1.6-4.3-1.6-5.9 0l-9.4 9.4c-1.6 1.6-1.6 4.3 0 5.9 0.8 0.8 1.9 1.2 2.9 1.2zM324.4 339.9c0 2.3 1.9 4.2 4.2 4.2H342c2.3 0 4.2-1.9 4.2-4.2 0-2.3-1.9-4.2-4.2-4.2h-13.4c-2.3 0-4.2 1.9-4.2 4.2zM288.5 344.1h13.4c2.3 0 4.2-1.9 4.2-4.2 0-2.3-1.9-4.2-4.2-4.2h-13.4c-2.3 0-4.2 1.9-4.2 4.2 0 2.3 1.9 4.2 4.2 4.2z" fill="#036EB8" p-id="7593"></path><path d="M432.9 232.8m-8.9 0a8.9 8.9 0 1 0 17.8 0 8.9 8.9 0 1 0-17.8 0Z" fill="#036EB8" p-id="7594"></path><path d="M827 579.9m-8.9 0a8.9 8.9 0 1 0 17.8 0 8.9 8.9 0 1 0-17.8 0Z" fill="#036EB8" p-id="7595"></path><path d="M185.2 626.2c-3.3 4.5-2.3 10.7 2.1 14 1.8 1.3 3.9 1.9 5.9 1.9 3.1 0 6.1-1.4 8.1-4.1 11.7-16 27.4-28.8 45.3-37.2 2.5-1.1 4.3-3.2 5.2-5.8s0.7-5.4-0.5-7.8c-6.1-12.1-9.3-25.2-9.3-38.8 0-38 25.4-71.9 61.8-82.5 5.3-1.6 8.3-7.1 6.8-12.4-1.6-5.3-7.1-8.3-12.4-6.8-21.5 6.3-40.9 19.7-54.6 37.6-14.1 18.6-21.6 40.7-21.6 64.1 0 13.5 2.5 26.5 7.3 38.8-17.2 9.7-32.4 23-44.1 39zM318 452.5c0 5.5 4.5 10 10 10 42.5 0 78.3 30.4 84.9 72.4 0.5 3.3 2.6 6.1 5.6 7.5 3 1.4 6.5 1.2 9.4-0.5 4.5-2.7 9.2-5.1 14.1-7.1 14.6-6.2 30-9.3 46-9.3 46.9 0 89.2 27.9 107.9 70.3 1.3 2.8 2.4 5.7 3.4 8.7 1 2.9 3.3 5.2 6.3 6.2 0.3 0.1 0.7 0.2 1 0.3 0.1 0 0.2 0 0.3 0.1 0.3 0.1 0.6 0.1 0.9 0.1H609c0.4 0 0.9 0 1.3-0.1 0.1 0 0.2 0 0.3-0.1 0.3-0.1 0.7-0.1 1-0.2 0.1 0 0.3-0.1 0.4-0.1l0.9-0.3c0.1-0.1 0.3-0.1 0.4-0.2 0.4-0.2 0.8-0.4 1.2-0.7 19.4-13 42.1-19.9 65.6-19.9 19.9 0 39.6 5.1 56.9 14.6 15.1 8.3 28.4 20.1 38.6 34 2 2.7 5 4.1 8.1 4.1 2 0 4.1-0.6 5.9-1.9 4.5-3.3 5.4-9.5 2.2-14-9.2-12.7-20.7-23.8-33.6-32.7C795.7 556 817 504.8 817 451.3c0-111.3-90.5-201.8-201.8-201.8-54.9 0-106.3 21.7-144.6 61-3.9 4-3.8 10.3 0.2 14.1 4 3.9 10.3 3.8 14.1-0.2 34.5-35.5 80.8-55 130.3-55C715.5 269.4 797 351 797 451.2c0 50-20.6 97.7-56.7 131.9-0.2-0.1-0.5-0.2-0.7-0.3-0.5-0.2-1-0.5-1.5-0.7-0.8-0.3-1.5-0.7-2.3-1-0.5-0.2-1-0.4-1.5-0.7-0.8-0.3-1.5-0.6-2.3-1l-1.5-0.6-2.4-0.9-1.5-0.6c-0.8-0.3-1.7-0.6-2.5-0.9-0.5-0.2-0.9-0.3-1.4-0.5-1-0.3-2.1-0.7-3.1-1-0.3-0.1-0.5-0.2-0.8-0.2-1.3-0.4-2.7-0.7-4-1.1-0.3-0.1-0.7-0.2-1-0.2-1-0.2-2-0.5-3-0.7l-1.5-0.3c-0.9-0.2-1.7-0.4-2.6-0.5-0.5-0.1-1.1-0.2-1.6-0.3-0.8-0.1-1.6-0.3-2.4-0.4-0.6-0.1-1.1-0.2-1.7-0.3l-2.4-0.3c-0.6-0.1-1.1-0.2-1.7-0.2l-2.4-0.3c-0.6-0.1-1.1-0.1-1.7-0.2-0.8-0.1-1.7-0.1-2.5-0.2-0.5 0-1.1-0.1-1.6-0.1-0.9-0.1-1.8-0.1-2.8-0.1-0.5 0-0.9 0-1.4-0.1-1.4 0-2.8-0.1-4.1-0.1-23.4 0-46.1 5.8-66.3 16.9-22.2-48.9-71.3-80.9-125.7-80.9h-4.2c-0.7 0-1.5 0-2.2 0.1-0.4 0-0.8 0-1.1 0.1-0.7 0-1.4 0.1-2.1 0.1-0.4 0-0.7 0-1.1 0.1-0.8 0.1-1.7 0.1-2.5 0.2-0.2 0-0.4 0-0.7 0.1-1.1 0.1-2.1 0.2-3.1 0.4-0.3 0-0.6 0.1-0.8 0.1-0.8 0.1-1.5 0.2-2.3 0.3-0.4 0.1-0.7 0.1-1.1 0.2l-2.1 0.3c-0.4 0.1-0.7 0.1-1.1 0.2-0.7 0.1-1.5 0.3-2.2 0.4-0.3 0.1-0.6 0.1-0.9 0.2-1 0.2-2.1 0.4-3.1 0.7-0.2 0-0.3 0.1-0.5 0.1-0.9 0.2-1.7 0.4-2.6 0.6-0.3 0.1-0.7 0.2-1 0.3l-2.1 0.6c-0.4 0.1-0.7 0.2-1.1 0.3l-2.1 0.6c-0.3 0.1-0.6 0.2-1 0.3-0.9 0.3-1.9 0.6-2.8 0.9-0.1 0-0.2 0.1-0.2 0.1h-0.1c-7.1-19.6-10.6-40.3-10.6-61.4 0-36.4 10.7-71.6 31-101.7a9.99 9.99 0 0 0-2.7-13.9 9.99 9.99 0 0 0-13.9 2.7c-22.6 33.4-34.5 72.4-34.5 112.8 0 13.5 1.3 26.8 3.9 39.8-5.5-8.5-12.2-16.3-20-23-19.2-16.5-43.8-25.6-69.1-25.6-5.9 0.2-10.4 4.6-10.4 10.2zM793.2 646.8c-5.1 2.2-7.4 8.1-5.1 13.2 6.6 15 9.9 30.9 9.9 47.4 0 65.1-52.9 118-118 118H296.3c-64.9 0-117.8-52.8-117.8-117.8 0-12.7 2-25.3 6-37.3 1.7-5.2-1.1-10.9-6.3-12.6-5.2-1.7-10.9 1.1-12.6 6.3-4.7 14-7 28.7-7 43.6 0 76 61.8 137.8 137.8 137.8H680c76.1 0 138-61.9 138-138 0-19.3-3.9-38-11.6-55.5-2.2-5-8.1-7.3-13.2-5.1z" fill="#036EB8" p-id="7596"></path></svg>
