<svg t="1686312527587" class="icon" viewBox="0 0 1024 1024" version="1.1" xmlns="http://www.w3.org/2000/svg" p-id="68244" width="16" height="16"><path d="M512 201c-64.71 0-113.549 17.004-166.503 53.73l-1.43 0.995c-12.165 8.499-24.596 17.984-40.368 30.629l-3.114 2.506c-7.827 6.328-35.697 29.034-44.619 36.174l-2.301 1.849c-38.06 30.666-98.73 84.442-182.363 161.597-13.737 12.673-13.736 34.372 0.003 47.043l7.55 6.96c79.76 73.452 137.928 124.92 174.833 154.653l6.964 5.6c12.418 10.029 36.447 29.606 41.176 33.408l3.712 2.975c15.514 12.4 27.809 21.727 39.957 30.152C398.45 805.996 447.29 823 512 823c63.146 0 108.939-16.16 158.284-51.653l1.164-0.84c11.829-8.562 23.495-17.831 40.369-31.84l24.079-20.084 4.829-4.003a1583.232 1583.232 0 0 1 16.653-13.598l5.93-4.76c36.424-29.32 95.696-79.542 178.001-150.813l10.652-9.23c14.718-12.759 14.719-35.596 0.002-48.356l-13.383-11.595c-82.62-71.518-141.742-121.564-177.555-150.284l-2.81-2.252a1639.081 1639.081 0 0 1-20.356-16.645l-24.366-20.32-4.129-3.427c-16.105-13.33-27.43-22.267-39.08-30.647C620.939 217.159 575.146 201 512 201z m0 64c49.072 0 82.002 11.62 120.913 39.609l2.055 1.487c9.781 7.129 19.948 15.203 34.474 27.24l25.548 21.302 4.16 3.45a1667.16 1667.16 0 0 0 18.022 14.725l3.836 3.077c32.14 25.775 84.15 69.684 155.89 131.615l5.205 4.494-13.813 11.923c-65.945 56.853-114.449 97.774-145.389 122.667l-5.73 4.598a1667.16 1667.16 0 0 0-18.021 14.725l-15.242 12.693-11.343 9.466c-17.283 14.377-28.537 23.326-39.652 31.32C594.003 747.38 561.072 759 512 759c-50.897 0-87.27-12.664-130.03-42.32l-1.91-1.332c-10.429-7.315-21.443-15.719-35.51-26.98l-3.822-3.073c-7.554-6.109-34.995-28.464-44.47-36.056l-1.389-1.113c-32.174-25.84-82.71-70.29-151.357-133.158l-3.24-2.969 5.584-5.113c66.14-60.531 115.259-103.755 147.134-129.498l7.321-5.889c12.487-10.078 37.05-30.09 41.62-33.765l2.619-2.101c14.929-11.952 26.418-20.684 37.42-28.313C424.73 277.664 461.102 265 512 265z" fill="#2600FF" p-id="68245"></path><path d="M514 367c-80.081 0-145 64.919-145 145s64.919 145 145 145 145-64.919 145-145c0-6.467-0.425-12.888-1.27-19.232-2.703-20.317-23.513-32.836-42.668-25.848l-0.58 0.218C609.605 469.02 604.395 470 599 470c-23.748 0-43-19.252-43-43 0-5.16 0.896-10.152 2.622-14.847l0.241-0.639c7.458-19.316-5.115-40.523-25.642-43.248A146.044 146.044 0 0 0 514 367z m-21.944 67.008l0.167-0.046 0.005 0.073c3.437 52.955 45.396 95.409 98.135 99.621l1.674 0.12-0.045 0.168C582.425 568.017 551.13 593 514 593c-44.735 0-81-36.265-81-81 0-37.13 24.983-68.425 59.056-77.992z" fill="#CDCBFF" p-id="68246"></path></svg>
