<svg t="1686402082282" class="icon" viewBox="0 0 1024 1024" version="1.1" xmlns="http://www.w3.org/2000/svg" p-id="44503" width="16" height="16"><path d="M802.773333 151.616a74.944 74.944 0 0 1 62.08 32.448l2.517334 3.882667 1.472 2.432 4.565333 9.429333 3.413333 12.074667 1.237334 10.048v9.216l-0.64 5.248-0.64 3.904-25.194667 135.018666-0.384 2.581334-0.064 1.92 0.128 1.130666 0.234667 1.109334 0.618666 1.706666 1.066667 2.176 67.2 123.392 3.072 7.082667 0.896 2.752a74.922667 74.922667 0 0 1-48 94.741333l-4.394667 1.28-5.162666 1.130667-3.904 0.64-136 17.706667-2.730667 0.426666-1.877333 0.576-1.045334 0.469334-0.981333 0.554666-1.621333 1.237334-1.557334 1.514666-96.576 102.101334-5.802666 5.12-2.325334 1.706666a74.922667 74.922667 0 0 1-104.96-16.362666l-2.56-3.818667-2.026666-3.392-2.453334-4.693333-22.677333-47.786667-225.813333 225.834667-2.773334 2.624-1.813333 1.578666-2.986667 2.496c-33.92 26.581333-82.197333 22.890667-112.426666-7.36-29.248-29.248-33.706667-75.306667-9.941334-109.013333l2.56-3.434667 2.474667-2.986666 1.578667-1.792 2.645333-2.794667 225.664-225.685333-49.877333-23.701334-6.656-3.925333-2.346667-1.685333a74.922667 74.922667 0 0 1-16.853333-104.853334l2.816-3.648 2.581333-2.965333 3.712-3.776 99.989333-94.656 1.621334-1.642667 1.152-1.493333 0.554666-1.002667 0.469334-1.024 0.576-1.941333 0.362666-2.24 18.133334-139.285333 1.706666-7.530667 0.853334-2.752a74.922667 74.922667 0 0 1 94.506666-48.426667l4.352 1.536 4.842667 2.133334 3.52 1.770666 121.024 65.92 1.941333 0.938667 1.792 0.64 1.109334 0.234667 1.130666 0.128 1.92-0.042667 2.154667-0.341333 138.24-25.792 7.701333-0.725334h2.88z m-369.216 444.16l-1.365333-1.152-1.578667-0.938667-16.832-8.32L176.469333 822.741333l-1.578666 1.792a20.906667 20.906667 0 0 0 0.576 25.856l1.664 1.856 1.856 1.664a21.034667 21.034667 0 0 0 23.936 1.92l1.92-1.344 1.792-1.578666L443.946667 615.552l-8.298667-16.810667-0.938667-1.578666-1.173333-1.365334z m377.856-376.384a10.965333 10.965333 0 0 0-6.4-3.626667l-1.92-0.149333-1.941333 0.192-136.426667 25.472-5.205333 0.789333a76.458667 76.458667 0 0 1-35.861333-4.437333l-4.821334-2.026667-4.693333-2.346666-121.877333-66.368-1.216-0.576a10.922667 10.922667 0 0 0-13.674667 5.056l-0.746667 1.770666-0.426666 1.92-17.92 137.6-0.853334 5.205334a76.458667 76.458667 0 0 1-15.317333 32.746666l-3.413333 3.968-3.690667 3.733334-100.778667 95.402666-0.917333 0.981334a10.922667 10.922667 0 0 0 0.576 14.549333l1.450667 1.28 1.706666 0.981333 125.333334 59.584 4.693333 2.432c4.629333 2.602667 8.96 5.674667 12.906667 9.130667l3.818666 3.626667c3.712 3.712 7.018667 7.808 9.898667 12.245333l2.709333 4.544 2.197334 4.245333 59.584 125.333334 0.64 1.173333 0.789333 1.066667 0.917333 1.002666 1.557334 1.216c3.242667 2.133333 7.36 2.346667 10.773333 0.64l1.642667-0.981333 1.472-1.301333 95.381333-100.778667 3.754667-3.690667c9.002667-8.32 19.84-14.293333 31.616-17.493333l5.12-1.216 5.162666-0.853333 137.6-17.941334 1.322667-0.256a10.922667 10.922667 0 0 0 8.106667-12.138666l-0.448-1.856-0.789334-1.813334-66.368-121.856-2.346666-4.693333a76.458667 76.458667 0 0 1-6.890667-35.498667l0.426667-5.226666 0.789333-5.184 25.472-136.426667 0.170667-1.322667v-1.344l-0.170667-1.344-0.533333-1.898666-0.853334-1.706667-1.088-1.536z" fill="#131415" p-id="44504"></path></svg>
