<svg t="1685950246133" class="icon" viewBox="0 0 1024 1024" version="1.1" xmlns="http://www.w3.org/2000/svg" p-id="23539" width="16" height="16"><path d="M441.191489 991.319149a70.808511 32.680851 0 1 0 141.617022 0 70.808511 32.680851 0 1 0-141.617022 0Z" fill="#999999" p-id="23540"></path><path d="M690.241362 640.827915c-2.28766 2.026213-5.882553 5.011064-10.762894 8.998128a479.188426 479.188426 0 0 0-161.051234 250.182808c-2.614468 10.022128-4.793191 15.054979-6.427234 15.054979-1.677617 0-3.899915-5.228936-6.645106-15.643234a479.144851 479.144851 0 0 0-171.683405-258.483745s-35.491404-34.728851-50.241361-54.380936a302.188936 302.188936 0 0 1-72.486128-196.891234C210.944 222.578383 345.71983 87.148936 512 87.148936s301.056 135.429447 301.056 302.515745a302.188936 302.188936 0 0 1-73.270468 197.806298c-14.597447 19.259915-31.155745 37.147234-49.54417 53.356936z" fill="#999999" p-id="23541"></path><path d="M718.390468 662.876596c-2.658043 2.353021-6.819404 5.817191-12.462298 10.414298A554.855489 554.855489 0 0 0 519.451234 962.995745c-3.050213 11.612596-5.533957 17.429787-7.451234 17.429787-1.960851 0-4.509957-6.035064-7.690894-18.105192a554.790128 554.790128 0 0 0-193.383489-295.06451l-5.425021-4.248511s-41.068936-40.219234-58.171915-62.965106A349.902979 349.902979 0 0 1 163.404255 372.060596C163.404255 178.589957 319.466213 21.787234 512 21.787234s348.595745 156.824511 348.595745 350.273362a349.902979 349.902979 0 0 1-84.83949 229.049191 420.907574 420.907574 0 0 1-57.365787 61.766809z" fill="#FFFFFF" p-id="23542"></path><path d="M512 370.382979m-305.021277 0a305.021277 305.021277 0 1 0 610.042554 0 305.021277 305.021277 0 1 0-610.042554 0Z" fill="#3298FF" p-id="23543"></path><path d="M645.708255 483.458723l31.221107-0.501106v-23.421277c0-8.083064 6.557957-14.641021 14.641021-14.641021a14.57566 14.57566 0 0 1 14.597447 14.641021l-0.39217 84.883064a14.466723 14.466723 0 0 1-14.205277 14.379575 14.074553 14.074553 0 0 1-14.314213-13.878468l-0.326808-25.382128-43.400171 0.501106-35.295319-59.326638 27.88766-13.55166 19.608511 36.275745z" fill="#FFFFFF" p-id="23544"></path><path d="M580.346553 445.875745c-52.398298 27.125106-130.745191 67.82366-130.745191 67.823659s-16.384 4.640681-25.382128-2.941276c-9.019915-7.603745-28.780936-62.921532-28.780936-62.921532s36.297532 34.619915 40.981787 32.179744c72.725787-37.691915 252.731915-134.645106 252.731915-134.645106l17.059404 35.186383s-32.920511 17.865532-88.782978 46.777192c-2.461957 1.26366-33.770213 16.819745-37.081873 18.540936z" fill="#D4EAF5" p-id="23545"></path><path d="M699.762383 323.213617l-255.128511 132.72783c-5.795404 3.050213-12.941617 1.721191-15.948255-2.941277L317.222128 366.374128c-2.984851-4.684255-0.653617-10.915404 5.163574-13.94383l297.047149-154.689362c5.817191-3.050213 12.963404-1.742979 15.970043 2.941277l69.501276 108.587574c2.984851 4.662468 0.675404 10.893617-5.141787 13.94383z" fill="#FFFFFF" p-id="23546"></path></svg>
