<?xml version="1.0" standalone="no"?><!DOCTYPE svg PUBLIC "-//W3C//DTD SVG 1.1//EN" "http://www.w3.org/Graphics/SVG/1.1/DTD/svg11.dtd"><svg t="1684816657051" class="icon" viewBox="0 0 1024 1024" version="1.1" xmlns="http://www.w3.org/2000/svg" p-id="4302" xmlns:xlink="http://www.w3.org/1999/xlink" width="16" height="16"><path d="M179.2 810.666667l-4.266667 4.266666c-17.066667 25.6-8.533333 59.733333 17.066667 72.533334s59.733333 8.533333 72.533333-17.066667l4.266667-4.266667 51.2-89.6h-85.333333c-21.333333 0-42.666667 12.8-55.466667 34.133334z m320-192h-85.333333l238.933333-409.6c17.066667-25.6 8.533333-59.733333-17.066667-72.533334s-59.733333-8.533333-72.533333 17.066667l-4.266667 4.266667L512 238.933333l-46.933333-81.066666c-12.8-29.866667-46.933333-38.4-72.533334-25.6s-38.4 42.666667-21.333333 72.533333c0 0 0 4.266667 4.266667 4.266667l76.8 136.533333-157.866667 273.066667H136.533333c-29.866667 0-51.2 25.6-51.2 51.2 0 29.866667 25.6 55.466667 51.2 55.466666h469.333334l-38.4-64c-12.8-25.6-38.4-42.666667-68.266667-42.666666z m388.266667 0h-153.6l-128-221.866667-25.6 42.666667c-21.333333 38.4-21.333333 89.6 0 128l174.933333 302.933333c12.8 25.6 46.933333 38.4 72.533333 25.6 25.6-12.8 38.4-46.933333 25.6-72.533333 0 0 0-4.266667-4.266666-4.266667L793.6 725.333333h89.6c29.866667 0 51.2-25.6 51.2-51.2 4.266667-29.866667-21.333333-55.466667-46.933333-55.466666z" p-id="4303"></path></svg>
