<svg t="1686400973111" class="icon" viewBox="0 0 1099 1024" version="1.1" xmlns="http://www.w3.org/2000/svg" p-id="14574" width="16" height="16"><path d="M553.0398 378.193153l128.249373-71.249652 15.104927-26.077372c11.114946-102.3145-5.272474-111.149457-5.272475-111.149458s5.129975-8.549958 0-32.204842S525.252435-69.397161 354.538269 28.784859a261.486223 261.486223 0 0 0-99.749513 98.039522c-90.344559 243.67381 99.749513 305.376009 99.749513 305.376009l69.68216 122.691901z m87.494572 341.99833l-55.004731 9.262455 63.55469 11.399945a36.052324 36.052324 0 0 1-8.549959-20.804899z" fill="#767C92" p-id="14575"></path><path d="M322.048427 562.729752S89.632062 693.259115 49.874756 780.896187A656.494294 656.494294 0 0 0 0 953.462844h769.496243s15.532424-193.086557-64.267187-239.113832-122.549402-59.42221-142.499304-94.334539-240.538825-56.999722-240.538825-56.999722z" fill="#7988B7" p-id="14576"></path><path d="M341.428333 426.500417s5.272474 97.469524-21.517395 135.944337a5.414974 5.414974 0 0 0 1.139994 7.409964c128.249374 92.767047 208.90398 71.249652 232.701364 60.704703a10.829947 10.829947 0 0 0 6.697467-10.687448 80.369608 80.369608 0 0 1 6.982466-41.609797c4.559978-7.694962-144.209296-115.709435-202.206512-151.761759a19.807403 19.807403 0 0 0-23.797384 0z" fill="#E6E6F4" p-id="14577"></path><path d="M362.803228 451.722794s80.227108 180.26162 174.989146 151.476761c102.029502-31.064848-136.514333-203.204008-136.514333-203.204008z" fill="#7988B7" p-id="14578"></path><path d="M355.108266 432.20039a210.471472 210.471472 0 0 0 117.561926 125.399387 839.035903 839.035903 0 0 0 94.904537 36.194824c11.114946 2.13749 58.994712 7.837462 71.249652-23.797384 9.547453-21.659894 13.394935-47.16727 20.234901-62.842193s28.499861-124.401893 30.63735-137.36933a401.135541 401.135541 0 0 0 1.282494-45.314778c0-9.262455 8.26496-30.494851 8.26496-38.332313a205.768995 205.768995 0 0 0-3.704982-24.65238c-1.424993-11.684943-2.849986-64.694684-6.26997-74.669635s-7.124965-31.492346-30.067353-36.90732c-130.386863-25.222377-284.998608 142.499304-299.248539 171.854161a144.494294 144.494294 0 0 0-11.114945-16.957417 69.68216 69.68216 0 0 0-34.91233-21.659895 48.164765 48.164765 0 0 0-32.917339 10.829948c-6.12747 6.839967-9.689953 32.77484-4.844976 59.422209s37.334818 71.249652 41.324798 75.524632a27.074868 27.074868 0 0 0 38.047314 3.419983z" fill="#E6E6F4" p-id="14579"></path><path d="M702.949068 127.536877a101.744503 101.744503 0 0 0 21.374895-52.582243c-21.659894 42.749791-99.749513-7.267465-99.749513-7.267465l3.419984 66.974673-35.197329-7.694962-149.766768 13.252435-91.769552 94.049541 4.13248 68.542165a101.174506 101.174506 0 0 0 8.834957 32.204843s23.084887-35.197328 59.564709-32.204843 108.726969-27.644865 149.624269-70.537155a409.6855 409.6855 0 0 1 58.424715-56.002227 183.254105 183.254105 0 0 0 32.63234-15.247425c9.404954 4.274979 22.799889 16.672419 23.512386 47.309769 1.567492 64.552185 10.25995 70.109658 10.25995 70.109657a385.460618 385.460618 0 0 1-1.994991-64.124686 104.736989 104.736989 0 0 0-6.839966-31.634846c5.414974 14.24993 9.689953 23.369886 8.12246 9.119955a154.469246 154.469246 0 0 1 16.814918-72.389646 61.132202 61.132202 0 0 1-11.399944 8.12246z" fill="#767C92" p-id="14580"></path></svg>
