<svg t="1686311614512" class="icon" viewBox="0 0 1024 1024" version="1.1" xmlns="http://www.w3.org/2000/svg" p-id="27713" width="13" height="13"><path d="M891.648 200.448l-170.496-170.496A102.4 102.4 0 0 0 648.704 0H204.8a102.4 102.4 0 0 0-102.4 102.4v819.2a102.4 102.4 0 0 0 102.4 102.4h614.4a102.4 102.4 0 0 0 102.4-102.4V272.896a102.4 102.4 0 0 0-29.952-72.448zM665.6 119.296L802.304 256H691.2a25.6 25.6 0 0 1-25.6-25.6zM819.2 896a25.6 25.6 0 0 1-25.6 25.6H230.4a25.6 25.6 0 0 1-25.6-25.6V128a25.6 25.6 0 0 1 25.6-25.6h332.8v153.6a102.4 102.4 0 0 0 102.4 102.4h153.6z" fill="#0D2D4E" p-id="27714"></path><path d="M512 387.584a128 128 0 0 0-114.944-34.816 12.8 12.8 0 0 0-6.4 21.76l49.152 49.152a25.6 25.6 0 0 1 0 36.096l-35.84 35.84a25.6 25.6 0 0 1-36.096 0l-49.152-49.152a12.8 12.8 0 0 0-21.76 6.144 128 128 0 0 0 179.2 140.8l167.68 167.68a51.2 51.2 0 1 0 72.192-71.936L542.72 517.12a128 128 0 0 0-30.72-129.536z" fill="#399CFF" p-id="27715"></path></svg>
