<svg t="1687368169223" class="icon" viewBox="0 0 1024 1024" version="1.1" xmlns="http://www.w3.org/2000/svg" p-id="47366" width="16" height="16"><path d="M514.420377 959.480703c-247.853807 0-448.817329-200.963522-448.817329-448.817329 0-247.926057 200.963522-448.817329 448.817329-448.817329 247.926057 0 448.889579 200.891272 448.889579 448.817329 0.036125 247.853807-200.927397 448.817329-448.889579 448.817329z m325.341988-229.141043a388.85701 388.85701 0 0 0 66.361674-191.60714h-224.553165c-1.408876 52.236788-5.780004 103.100826-14.052635 151.761236 60.762295 8.525506 118.526212 21.964016 172.244126 39.845904z m-436.173569-191.643265c1.517251 49.382911 5.960629 98.043322 14.413885 144.644605 31.573273-2.745502 63.688422-4.371128 96.453821-4.371128 32.837649 0 64.952798 1.625626 96.52607 4.371128 8.453256-46.601284 12.896634-95.29782 14.413886-144.644605h-221.807662z m221.771537-56.029916c-1.517251-49.455161-5.960629-98.043322-14.413886-144.644606-31.573273 2.745502-63.688422 4.371128-96.52607 4.371128-32.729274 0-64.844422-1.589501-96.453821-4.371128-8.453256 46.637409-12.896634 95.189445-14.413885 144.644606h221.807662z m175.784379 295.972341c-45.806534-14.413886-94.214069-25.432019-144.644606-32.909899-11.740634 51.405913-27.057645 100.174698-45.734284 145.258732 74.128554-18.676639 139.767727-58.341918 190.37889-112.348833z m-313.92648 123.403091c9.067382 0.614125 18.062513 1.408876 27.23827 1.408876 9.248007 0 18.243138-0.794751 27.31052-1.408876 23.842517-49.744161 43.133282-105.051577 57.474917-163.682495-27.852395-2.492627-56.138291-3.901503-84.785437-3.901503-28.574896 0-56.860792 1.408876-84.677062 3.901503 14.269385 58.594793 33.596275 113.938333 57.438792 163.682495z m-69.034926-11.054258c-18.676639-45.120158-33.99365-93.852819-45.734283-145.258732-50.430537 7.47788-98.838072 18.496014-144.644606 32.909899 50.611162 54.006915 116.250335 93.672194 190.378889 112.348833z m-56.752416-200.493897c-8.272631-48.660411-12.643759-99.560573-14.052636-151.761236H122.82509c4.985254 70.732802 28.719396 136.19135 66.361674 191.60714 53.717914-17.881888 111.481832-31.320398 172.244126-39.845904zM189.186764 291.023213C151.544486 346.475129 127.810344 411.933677 122.82509 482.666479h224.553164c1.408876-52.236788 5.780004-103.100826 14.052636-151.761237-60.762295-8.633881-118.526212-22.000141-172.244126-39.882029z m38.617653-48.37141c45.806534 14.522261 94.214069 25.540394 144.644606 33.018274 11.740634-51.442038 27.057645-100.174698 45.734283-145.294857-74.128554 18.676639-139.767727 58.341918-190.378889 112.276583z m313.92648-123.294716c-9.067382-0.614125-18.062513-1.408876-27.31052-1.408876-9.175757 0-18.134763 0.794751-27.23827 1.408876-23.842517 49.744161-43.133282 104.979327-57.474917 163.682495 27.852395 2.492627 56.138291 3.901503 84.677062 3.901503 28.647146 0 56.933042-1.408876 84.785437-3.901503-14.269385-58.739293-33.596275-113.974458-57.438792-163.682495z m69.034925 11.018133c18.676639 45.120158 33.99365 93.852819 45.734284 145.294857 50.430537-7.47788 98.838072-18.496014 144.644606-33.018274-50.611162-53.934665-116.250335-93.599944-190.37889-112.276583z m56.752417 200.530022c8.272631 48.660411 12.643759 99.560573 14.052635 151.761237h224.553165c-4.985254-70.732802-28.719396-136.19135-66.361674-191.607141-53.717914 17.845763-111.481832 31.212023-172.244126 39.845904z" fill="#231815" p-id="47367"></path></svg>
