<svg t="1685764724739" class="icon" viewBox="0 0 1024 1024" version="1.1" xmlns="http://www.w3.org/2000/svg" p-id="10203" width="16" height="16"><path d="M68.821333 8.96l4.010667 3.541333 938.666667 938.666667a42.666667 42.666667 0 0 1-56.32 63.872l-4.010667-3.541333-285.994667-285.866667a38.186667 38.186667 0 0 1-29.44-11.136l-0.896-0.938667a170.666667 170.666667 0 0 0-245.674666 0 38.272 38.272 0 0 1-54.101334 1.834667l-0.469333-0.426667-3.626667-3.626666a42.666667 42.666667 0 0 1-3.541333-56.32l3.541333-4.053334a255.232 255.232 0 0 1 184.746667-74.922666l-112.384-112.384a381.696 381.696 0 0 0-162.858667 96.810666l-1.237333 1.237334a40.533333 40.533333 0 0 1-57.344 0.512l-0.256-0.256-1.493333-1.536a42.666667 42.666667 0 0 1-3.541334-56.277334l3.541334-4.010666a467.84 467.84 0 0 1 156.16-103.466667L239.786667 300.16l-6.314667 3.242667A597.162667 597.162667 0 0 0 89.6 409.642667l-0.853333 0.853333a41.301333 41.301333 0 0 1-58.496 0.128L29.312 409.6a42.666667 42.666667 0 0 1-3.584-56.32l3.541333-4.053333a683.264 683.264 0 0 1 147.498667-112.170667l-164.266667-164.266667A42.666667 42.666667 0 0 1 68.821333 8.96zM512 789.333333a42.666667 42.666667 0 1 1 0 85.333334 42.666667 42.666667 0 0 1 0-85.333334z m189.056-387.029333a468.181333 468.181333 0 0 1 142.805333 97.834667 42.666667 42.666667 0 0 1 0 60.373333l-1.493333 1.493333a40.533333 40.533333 0 0 1-58.837333-1.536 383.402667 383.402667 0 0 0-104.832-74.496l-4.394667-2.005333a42.666667 42.666667 0 1 1 36.053333-77.312v-0.085333l-9.301333-4.266667z m282.453333-64l11.221334 10.965333a42.666667 42.666667 0 0 1 3.541333 56.32l-3.541333 4.053334-1.024 0.981333a41.301333 41.301333 0 0 1-58.453334-0.128l-0.853333-0.853333a596.053333 596.053333 0 0 0-471.594667-172.970667l-2.858666 0.256a42.666667 42.666667 0 0 1-7.424-84.992A681.130667 681.130667 0 0 1 983.466667 338.346667z" fill="#666666" p-id="10204"></path></svg>
