<svg t="1686314016381" class="icon" viewBox="0 0 1024 1024" version="1.1" xmlns="http://www.w3.org/2000/svg" p-id="107055" width="16" height="16"><path d="M0 0h1024v1024H0z" fill="#D8D8D8" fill-opacity="0" p-id="107056"></path><path d="M689.694 305.447C842.301 461.92 909.298 642.84 839.314 712.824l-1.019 1-0.882 0.841c-0.27 0.328-0.575 0.634-0.882 0.941-105.874 105.874-265.143 129.172-405.027 72.968l36.97 129.619c4.776 16.742-4.923 34.18-21.664 38.95-2.81 0.8-5.718 1.206-8.641 1.206l-186.655-0.034a31.42 31.42 0 0 1-21.498-8.471l-0.792-0.765c-5.705-5.705-9.234-13.585-9.236-22.29 0-2.92 0.405-5.827 1.205-8.637l44.937-157.805 19.598-68.826-3.885-3.932c-153.78-158.431-162.539-401.207-18.538-545.209l0.892-0.821 0.486-0.523c0.456-0.49 0.93-0.963 1.405-1.438 69.985-69.985 250.904-2.988 407.376 149.619L444.644 487.01l-0.825 0.737c-13.226 12.203-14.462 32.793-2.603 46.512 0.53 0.613 1.082 1.207 1.656 1.78 13.084 13.085 34.294 13.089 47.374 0.009l0.843-0.875 0.812-0.905 197.793-228.82z" fill="#C5C5C5" fill-opacity=".461" p-id="107057"></path><path d="M734.775 236.228c-6.835-10.476-5.656-24.65 3.538-33.844 10.549-10.55 27.655-10.546 38.208 0.006 10.553 10.553 10.556 27.66 0.007 38.209-9.194 9.193-23.367 10.372-33.843 3.538L493.789 532.082l195.905-226.635C842.301 461.92 909.298 642.84 839.314 712.824c-71.206 71.205-257.25 0.608-415.543-157.684C265.48 396.848 194.882 210.804 266.088 139.598c69.985-69.985 250.904-2.988 407.376 149.619L444.644 487.01l290.13-250.782z" fill="#ABABAB" fill-opacity=".574" p-id="107058"></path><path d="M776.52 202.39c10.554 10.553 10.557 27.66 0.008 38.209-9.194 9.193-23.367 10.372-33.843 3.538L491.9 534.267a33.48 33.48 0 0 1-1.655 1.781c-13.08 13.08-34.29 13.076-47.374-0.009a33.514 33.514 0 0 1-1.656-1.78c-12.101-13.999-10.567-35.153 3.428-47.249l290.13-250.782c-6.834-10.476-5.655-24.65 3.539-33.844 10.549-10.55 27.655-10.546 38.208 0.006z" fill="#000000" fill-opacity=".304" p-id="107059"></path><path d="M399.167 675.33l69.24 242.79c4.773 16.737-4.93 34.174-21.675 38.946a31.536 31.536 0 0 1-8.643 1.208H251.4c-17.41 0-31.525-14.11-31.525-31.515 0-2.92 0.406-5.827 1.206-8.636l68.873-241.627c6.97-24.456 29.167-41.443 54.603-41.789 25.293-0.343 47.675 16.306 54.61 40.623z" fill="#ABABAB" fill-opacity=".574" p-id="107060"></path><path d="M318.772 689.355a27.022 27.012 0 1 0 54.044 0 27.022 27.012 0 1 0-54.044 0Z" fill="#000000" fill-opacity=".304" p-id="107061"></path><path d="M909 219.5c0 83.928-67.357 152.124-150.962 153.48l-2.538 0.02v-18.059c74.054 0 134.227-59.432 135.423-133.201l0.018-2.24H909z m-41 2c0 61.51-49.366 111.491-110.64 112.485l-1.86 0.015v-18c51.664 0 93.644-41.459 94.487-92.922L850 221.5h18z m-46-2c0 36.807-29.46 66.734-66.088 67.486L754.5 287v-18c26.904 0 48.795-21.464 49.483-48.202L804 219.5h18zM755.5 109v18c-51.664 0-93.644 41.459-94.487 92.922L661 221.5h-18c0-62.132 50.368-112.5 112.5-112.5z m-1 43v18c-26.904 0-48.795 21.464-49.483 48.202L705 219.5h-18c0-37.28 30.22-67.5 67.5-67.5z m1-86v18.059c-74.054 0-134.227 59.432-135.423 133.201l-0.018 2.24H602C602 134.724 670.724 66 755.5 66z" fill="#ABABAB" fill-opacity=".574" p-id="107062"></path></svg>
