<svg t="1687367397997" class="icon" viewBox="0 0 1024 1024" version="1.1" xmlns="http://www.w3.org/2000/svg" p-id="1519" width="16" height="16"><path d="M904 1024H120c-66.168 0-120-53.832-120-120V120C0 53.832 53.832 0 120 0h784c66.168 0 120 53.832 120 120v784c0 66.168-53.832 120-120 120zM120 4C56.038 4 4 56.038 4 120v784c0 63.962 52.038 116 116 116h784c63.962 0 116-52.038 116-116V120c0-63.962-52.038-116-116-116H120z" fill="#D8DDE3" p-id="1520"></path><path d="M511.996 686.718H305.682c-96.776 0-175.508-78.732-175.508-175.508 0-96.776 78.732-175.508 175.508-175.508h80.94v60h-80.94c-63.692 0-115.508 51.816-115.508 115.508 0 63.692 51.816 115.508 115.508 115.508h206.314v60zM716.588 687.126v-60c63.692 0 115.508-51.816 115.508-115.506 0-63.702-51.816-115.518-115.508-115.518l-183.958-0.4 0.128-60 183.892 0.4c96.71 0 175.444 78.732 175.444 175.508 0.002 96.782-78.73 175.516-175.506 175.516z" fill="#20263B" p-id="1521"></path><path d="M512 542h-119.35c-16.568 0-30-13.432-30-30s13.432-30 30-30H512c16.568 0 30 13.432 30 30s-13.432 30-30 30z" fill="#20263B" p-id="1522"></path><path d="M731.024 831.002a29.954 29.954 0 0 1-23.934-11.882l-438-578c-10.006-13.206-7.414-32.022 5.792-42.03s32.022-7.414 42.03 5.792l438 578c10.008 13.206 7.414 32.024-5.792 42.03a29.886 29.886 0 0 1-18.096 6.09z" fill="#FF4B07" p-id="1523"></path></svg>
