<svg t="1687367216031" class="icon" viewBox="0 0 1024 1024" version="1.1" xmlns="http://www.w3.org/2000/svg" p-id="36006" width="16" height="16"><path d="M10.666667 10.666667m213.333333 0l576 0q213.333333 0 213.333333 213.333333l0 576q0 213.333333-213.333333 213.333333l-576 0q-213.333333 0-213.333333-213.333333l0-576q0-213.333333 213.333333-213.333333Z" fill="#F3F8FF" p-id="36007"></path><path d="M781.824 158.378667a151.616 151.616 0 0 0-111.424 3.285333l-0.896 0.384c-35.136 15.210667-63.253333 43.690667-77.098667 78.229333l-56.917333 140.8c-3.008 7.466667-2.88 15.829333 0.448 23.104 3.349333 7.296 9.514667 12.928 17.237333 15.744 7.722667 2.816 16.362667 2.56 23.957334-0.725333 7.573333-3.285333 13.546667-9.365333 16.554666-16.810667l57.002667-140.864a82.730667 82.730667 0 0 1 44.288-44.821333 86.186667 86.186667 0 0 1 63.872-2.005333 80.213333 80.213333 0 0 1 46.08 42.048c8.938667 19.541333 9.429333 41.386667 1.301333 61.44l-67.392 166.976a82.730667 82.730667 0 0 1-44.266666 44.842666 86.186667 86.186667 0 0 1-63.893334 2.005334 32 32 0 0 0-24.042666 0.746666c-15.68 6.784-22.933333 24.597333-16.085334 39.808 3.349333 7.274667 9.514667 12.906667 17.237334 15.722667a151.616 151.616 0 0 0 111.424-3.285333l0.810666-0.341334c35.136-15.210667 63.253333-43.712 77.098667-78.229333l67.52-166.954667a135.466667 135.466667 0 0 0-2.24-107.52c-15.36-33.770667-44.736-60.586667-80.576-73.6z" fill="#DAE9FF" p-id="36008"></path><path d="M744.981333 137.045333a133.930667 133.930667 0 0 0-104.469333 3.285334l-0.832 0.384a141.44 141.44 0 0 0-72.298667 78.250666l-53.333333 140.821334c-2.858667 7.466667-2.730667 15.829333 0.405333 23.125333a28.736 28.736 0 0 0 38.613334 15.018667c7.082667-3.285333 12.693333-9.386667 15.530666-16.853334l53.525334-140.885333a80.426667 80.426667 0 0 1 41.514666-44.842667 76.16 76.16 0 0 1 59.904-2.005333 77.269333 77.269333 0 0 1 43.178667 42.048c8.384 19.541333 8.853333 41.386667 1.237333 61.44L704.64 463.786667a80.426667 80.426667 0 0 1-41.514667 44.842666 76.16 76.16 0 0 1-59.904 2.005334 28.266667 28.266667 0 0 0-22.528 0.768c-14.72 6.784-21.504 24.597333-15.082666 39.808 3.136 7.253333 8.917333 12.906667 16.170666 15.722666a133.930667 133.930667 0 0 0 104.469334-3.285333l0.746666-0.341333a141.44 141.44 0 0 0 72.32-78.250667l63.296-166.976a143.808 143.808 0 0 0-2.133333-107.52c-14.357333-33.706667-41.941333-60.586667-75.498667-73.536z" fill="#3889FF" p-id="36009"></path><path d="M476.906667 624.170667c-7.253333 3.050667-13.12 8.917333-16.256 16.213333l-59.306667 137.984a81.792 81.792 0 0 1-43.434667 43.264 77.376 77.376 0 0 1-60.010666 0.426667c-39.530667-16.554667-57.536-63.082667-40.106667-103.658667l70.336-163.669333a81.792 81.792 0 0 1 43.434667-43.264 77.376 77.376 0 0 1 59.989333-0.426667c7.168 3.072 15.168 2.986667 22.592-0.149333 7.253333-3.050667 13.013333-8.874667 16.170667-16.192 3.157333-7.317333 3.370667-15.573333 0.554666-22.890667a28.352 28.352 0 0 0-15.509333-16c-32.917333-13.888-71.082667-13.781333-104.704 0.405333l-0.746667 0.298667a143.786667 143.786667 0 0 0-75.648 75.52l-70.4 163.776a139.946667 139.946667 0 0 0-2.389333 106.517333 131.712 131.712 0 0 0 72.469333 74.858667c32.917333 13.866667 71.082667 13.76 104.704-0.426667l0.768-0.32a143.786667 143.786667 0 0 0 75.626667-75.477333l59.52-138.176c6.570667-15.232-0.298667-32.704-15.104-38.826667a29.376 29.376 0 0 0-22.549333 0.213334z" fill="#FFD6C2" p-id="36010"></path><path d="M445.909333 602.602667c-7.253333 3.050667-13.098667 8.917333-16.256 16.213333l-59.349333 138.112a81.792 81.792 0 0 1-43.434667 43.242667 77.376 77.376 0 0 1-60.010666 0.426666c-39.530667-16.554667-57.536-63.061333-40.106667-103.637333L297.130667 533.333333a81.792 81.792 0 0 1 43.413333-43.242666 77.376 77.376 0 0 1 60.010667-0.426667c7.168 3.050667 15.168 2.986667 22.592-0.149333 7.253333-3.050667 13.013333-8.896 16.170666-16.213334 3.136-7.296 3.370667-15.573333 0.554667-22.869333a28.352 28.352 0 0 0-15.509333-16.021333c-32.917333-13.866667-71.082667-13.76-104.704 0.405333l-0.768 0.32a143.786667 143.786667 0 0 0-75.626667 75.498667l-70.336 163.669333a139.946667 139.946667 0 0 0-2.410667 106.517333 131.712 131.712 0 0 0 72.469334 74.837334c32.917333 13.866667 71.082667 13.76 104.704-0.405334l0.768-0.32a143.786667 143.786667 0 0 0 75.648-75.498666l59.477333-138.026667c6.549333-15.253333-0.32-32.725333-15.146667-38.848a28.8 28.8 0 0 0-22.528 0z" fill="#FB560A" p-id="36011"></path></svg>
